# xmcd
#
# Track frame offsets:
# 150
# 22281
# 45026
# 70488
# 82149
# 91456
# 107277
# 126663
# 138364
#
# Disc length: 1961 seconds
#
#
# Revision: 0
# Processed by: cddbd v1.5.1PL2 Copyright (c) Steve Scherf et al.
# Submitted via: FreeRIP 2.944 
#
DISCID=7b07a709
DTITLE=Buddy Miles A message to the people - A message to the people
DYEAR=1900
DGENRE=Blues rock
TTITLE0=Joe Tex
TTITLE1=The way I feel tonight
TTITLE2=Place over there
TTITLE3=The segment
TTITLE4=Don't keep me wondering
TTITLE5=Midnight rider
TTITLE6=Sudden stop
TTITLE7=Wholesale love
TTITLE8=That's the way life is
EXTD=
EXTT0=
EXTT1=
EXTT2=
EXTT3=
EXTT4=
EXTT5=
EXTT6=
EXTT7=
EXTT8=
PLAYORDER=
